<!-- footer background image -->
<svg xmlns="http://www.w3.org/2000/svg" version="1.1" xmlns:xlink="http://www.w3.org/1999/xlink" xmlns:svgjs="http://svgjs.dev/svgjs" width="1440" height="560" preserveAspectRatio="none" viewBox="0 0 1440 560"><g mask="url(&quot;#SvgjsMask1327&quot;)" fill="none"><rect width="1440" height="560" x="0" y="0" fill="url(&quot;#SvgjsLinearGradient1328&quot;)"></rect><path d="M646.07 228.83a55.27 55.27 0 1 0 79.68-76.61z" fill="rgba(214, 208, 208, 1)"></path><path d="M1407.04 534.12 a7.05 7.05 0 1 0 14.1 0 a7.05 7.05 0 1 0 -14.1 0z" stroke="rgba(73, 71, 64, 1)"></path><path d="M283.28 297.13L292.66 297.13L292.66 299.92L283.28 299.92z" fill="rgba(73, 71, 64, 1)"></path><path d="M1047.67 385.06L1066.29 385.06L1066.29 403.68L1047.67 403.68z" fill="rgba(73, 71, 64, 1)"></path><path d="M1076.83 391.03 a26.42 26.42 0 1 0 52.84 0 a26.42 26.42 0 1 0 -52.84 0z" fill="rgba(214, 208, 208, 1)"></path><path d="M249.69 325.3a22.91 22.91 0 1 0 16.9-42.59z" fill="rgba(73, 71, 64, 1)"></path><path d="M442.36 385.87L492.71 385.87L492.71 436.22L442.36 436.22z" stroke="rgba(73, 71, 64, 1)"></path><path d="M838.43 285.54a29.87 29.87 0 1 0-5.45 59.49z" fill="rgba(214, 208, 208, 1)"></path><path d="M234.78 287.8a8.38 8.38 0 1 0 15.42 6.58z" fill="rgba(89, 119, 172, 1)"></path><path d="M1098.71 385.08 a29.91 29.91 0 1 0 59.82 0 a29.91 29.91 0 1 0 -59.82 0z" stroke="rgba(89, 119, 172, 1)"></path><path d="M706.1 156.09L744.58 156.09L744.58 194.57L706.1 194.57z" stroke="rgba(214, 208, 208, 1)"></path><path d="M838.64 124.21L856.31 124.21L856.31 162.47L838.64 162.47z" fill="rgba(73, 71, 64, 1)"></path><path d="M1253.18 88.98a29.34 29.34 0 1 0 19.51-55.34z" fill="rgba(89, 119, 172, 1)"></path><path d="M853.06 203.05L908.35 203.05L908.35 258.34L853.06 258.34z" stroke="rgba(73, 71, 64, 1)"></path><path d="M944.85 472.46L947.41 472.46L947.41 475.02L944.85 475.02z" fill="rgba(214, 208, 208, 1)"></path><path d="M981.91 296.06L1025.52 296.06L1025.52 306.88L981.91 306.88z" fill="rgba(89, 119, 172, 1)"></path><path d="M687.11 71.16 a8.03 8.03 0 1 0 16.06 0 a8.03 8.03 0 1 0 -16.06 0z" fill="rgba(214, 208, 208, 1)"></path><path d="M358.54 138.98a2.72 2.72 0 1 0 2.58 4.79z" fill="rgba(73, 71, 64, 1)"></path><path d="M535.29 192.5L539.11 192.5L539.11 196.32L535.29 196.32z" stroke="rgba(214, 208, 208, 1)"></path><path d="M501.95 66.83a20.77 20.77 0 1 0 38.74 14.98z" stroke="rgba(214, 208, 208, 1)"></path><path d="M322.23 200.9L359.01 200.9L359.01 201.8L322.23 201.8z" fill="rgba(214, 208, 208, 1)"></path><path d="M1437.51 439.7 a1.55 1.55 0 1 0 3.1 0 a1.55 1.55 0 1 0 -3.1 0z" fill="rgba(89, 119, 172, 1)"></path><path d="M1355.53 417.74a50.19 50.19 0 1 0-36.9-93.36z" stroke="rgba(214, 208, 208, 1)"></path><path d="M686.03 445.47a34.96 34.96 0 1 0 30.88 62.73z" fill="rgba(73, 71, 64, 1)"></path><path d="M1233.09 17.06a37.61 37.61 0 1 0 29.43 69.23z" fill="rgba(73, 71, 64, 1)"></path><path d="M569.39 274.69L586 274.69L586 275.74L569.39 275.74z" stroke="rgba(214, 208, 208, 1)"></path><path d="M354.02 436.33L387.15 436.33L387.15 488.78L354.02 488.78z" fill="rgba(89, 119, 172, 1)"></path><path d="M326.07 502.72L353.73 502.72L353.73 530.38L326.07 530.38z" fill="rgba(73, 71, 64, 1)"></path><path d="M63.23 329.78L67.58 329.78L67.58 382.58L63.23 382.58z" stroke="rgba(89, 119, 172, 1)"></path><path d="M193.76 91.26L246.66 91.26L246.66 115.83L193.76 115.83z" stroke="rgba(73, 71, 64, 1)"></path><path d="M280.93 251.86L326.32 251.86L326.32 298.94L280.93 298.94z" stroke="rgba(214, 208, 208, 1)"></path><path d="M1009 401.31 a17.17 17.17 0 1 0 34.34 0 a17.17 17.17 0 1 0 -34.34 0z" stroke="rgba(89, 119, 172, 1)"></path><path d="M188.53 545.14L190.67 545.14L190.67 547.28L188.53 547.28z" stroke="rgba(89, 119, 172, 1)"></path></g><defs><mask id="SvgjsMask1327"><rect width="1440" height="560" fill="#ffffff"></rect></mask><linearGradient x1="15.28%" y1="-39.29%" x2="84.72%" y2="139.29%" gradientUnits="userSpaceOnUse" id="SvgjsLinearGradient1328"><stop stop-color="rgba(28, 41, 54, 1)" offset="0"></stop><stop stop-color="rgba(0, 0, 0, 1)" offset="1"></stop></linearGradient></defs></svg>